<?xml version="1.0" encoding="utf-8"?>
<!-- Generator: Adobe Illustrator 17.0.0, SVG Export Plug-In . SVG Version: 6.00 Build 0)  -->
<!DOCTYPE svg PUBLIC "-//W3C//DTD SVG 1.1//EN" "http://www.w3.org/Graphics/SVG/1.1/DTD/svg11.dtd">
<svg version="1.1" id="Capa_1" xmlns="http://www.w3.org/2000/svg" xmlns:xlink="http://www.w3.org/1999/xlink" x="0px" y="0px"
	 width="110px" height="85px" viewBox="0 0 110 85" enable-background="new 0 0 110 85" xml:space="preserve">
<path fill="#FFFFFF" d="M64.35,34.142c-1.176,0-2.099,0.352-2.823,1.076c-0.724,0.725-1.076,1.624-1.076,2.749
	c0,1.103,0.354,2.005,1.081,2.754c0.723,0.745,1.645,1.108,2.819,1.108c1.173,0,2.094-0.363,2.818-1.108
	c0.728-0.751,1.081-1.652,1.081-2.754c0-1.125-0.352-2.024-1.076-2.749C66.448,34.493,65.525,34.142,64.35,34.142z"/>
<path fill="#FFFFFF" d="M7.038,18.054v32.837h45.963L53,68.358l19.407-17.468h31.748V18.054H7.038z M19.9,42.254
	c-0.15,0.548-0.419,1.086-0.798,1.6c-0.388,0.527-0.929,0.972-1.607,1.325c-0.684,0.354-1.568,0.534-2.627,0.534
	c-0.966,0-1.907-0.166-2.797-0.493c-0.908-0.333-1.644-0.806-2.188-1.405l-0.271-0.298l0.264-0.305
	c0.321-0.37,0.629-0.745,0.915-1.115c0.304-0.392,0.622-0.781,0.945-1.155l0.257-0.296l0.33,0.211
	c0.52,0.331,0.962,0.577,1.313,0.728c0.311,0.136,0.738,0.205,1.269,0.205c0.025-0.001,0.107-0.006,0.243-0.017
	c0.111-0.008,0.243-0.046,0.393-0.112c0.142-0.062,0.269-0.155,0.39-0.285c0.086-0.093,0.141-0.268,0.158-0.504
	c0.022-0.393-0.113-0.559-0.217-0.649c-0.229-0.198-0.54-0.37-0.922-0.513c-0.427-0.158-0.901-0.318-1.407-0.475
	c-0.555-0.172-1.085-0.413-1.575-0.718c-0.521-0.324-0.954-0.784-1.288-1.369c-0.336-0.588-0.506-1.365-0.506-2.309
	c0-0.844,0.171-1.571,0.506-2.16c0.327-0.572,0.743-1.05,1.237-1.42c0.489-0.367,1.027-0.635,1.599-0.799
	c0.558-0.159,1.076-0.241,1.538-0.241c0.267,0,0.595,0.027,0.974,0.079c0.388,0.054,0.785,0.148,1.179,0.28
	c0.397,0.133,0.792,0.307,1.173,0.517c0.402,0.222,0.76,0.503,1.064,0.835l0.244,0.266l-0.204,0.298
	c-0.277,0.403-0.572,0.8-0.875,1.18c-0.289,0.361-0.571,0.741-0.837,1.127l-0.308,0.447l-0.385-0.383
	c-0.058-0.057-0.218-0.192-0.645-0.456c-0.286-0.177-0.687-0.268-1.193-0.268c-0.417,0-0.72,0.079-0.876,0.229
	c-0.097,0.091-0.202,0.238-0.16,0.563c0.014,0.084,0.067,0.236,0.334,0.39c0.302,0.175,0.664,0.347,1.076,0.511
	c0.446,0.179,0.921,0.381,1.412,0.603c0.528,0.237,1.024,0.539,1.473,0.895c0.468,0.373,0.858,0.845,1.159,1.406
	c0.308,0.572,0.464,1.289,0.464,2.13C20.121,41.259,20.049,41.712,19.9,42.254z M25.664,45.415h-3.996V30.555h3.996V45.415z
	 M25.329,27.346c-0.481,0.436-1.021,0.657-1.607,0.657c-0.611,0-1.164-0.221-1.645-0.657c-0.494-0.447-0.744-1.03-0.744-1.732
	c0-0.698,0.249-1.285,0.739-1.744c0.481-0.452,1.036-0.681,1.65-0.681c0.588,0,1.13,0.229,1.612,0.681
	c0.491,0.461,0.739,1.047,0.739,1.744C26.073,26.315,25.823,26.898,25.329,27.346z M50.205,45.415v-9.16
	c-0.042-0.539-0.242-1.017-0.61-1.427c-0.349-0.388-0.938-0.607-1.751-0.65c-0.563,0-1.128,0.103-1.655,0.305
	c-0.528,0.202-1.001,0.487-1.406,0.845c-0.401,0.356-0.729,0.787-0.974,1.278c-0.24,0.48-0.361,1.013-0.361,1.583v7.225h-3.995
	v-9.16c-0.042-0.539-0.241-1.016-0.609-1.427c-0.349-0.388-0.938-0.607-1.751-0.65c-0.563,0-1.128,0.103-1.656,0.305
	c-0.527,0.202-1,0.487-1.405,0.845c-0.401,0.357-0.729,0.788-0.973,1.278c-0.24,0.479-0.362,1.011-0.362,1.583v7.225H28.7V30.555
	h3.624v0.789c0.048,0.558,0.092,1.099,0.129,1.584c0.004,0.051,0.008,0.101,0.012,0.152c0.483-0.669,1.079-1.234,1.782-1.689
	c1.118-0.723,2.44-1.118,3.932-1.17c0,0,0.001,0,0.002,0c1.481,0,2.685,0.378,3.595,1.126c0.619,0.508,1.07,1.13,1.348,1.856
	c0.525-0.757,1.187-1.384,1.976-1.873c1.104-0.684,2.394-1.057,3.832-1.109c0.001,0,0.001,0,0.001,0
	c1.588,0,2.855,0.428,3.781,1.272c0.932,0.85,1.432,1.97,1.487,3.33l0,10.592H50.205z M71.669,40.974
	c-0.406,0.942-0.971,1.778-1.678,2.485c-0.709,0.709-1.559,1.274-2.527,1.679c-0.969,0.406-2.016,0.611-3.114,0.611
	c-0.783,0-1.497-0.094-2.12-0.279c-0.608-0.181-1.13-0.386-1.553-0.611c-0.078-0.042-0.154-0.083-0.226-0.124v8.057h-3.433V30.555
	h2.912v0.454c0,0.249,0.014,0.496,0.042,0.736c0.226-0.17,0.492-0.341,0.808-0.517c0.444-0.248,0.97-0.478,1.561-0.683
	c0.616-0.215,1.292-0.323,2.009-0.323c1.098,0,2.145,0.206,3.115,0.612c0.969,0.406,1.819,0.97,2.526,1.678
	c0.706,0.706,1.27,1.536,1.676,2.465c0.408,0.935,0.615,1.942,0.615,2.991C72.282,39.016,72.075,40.028,71.669,40.974z
	 M78.346,45.415h-3.995v-22.19h3.995V45.415z M84.261,45.415h-3.995V30.555h3.995V45.415z M83.926,27.346
	c-0.481,0.435-1.021,0.657-1.607,0.657c-0.611,0-1.164-0.221-1.644-0.657c-0.494-0.447-0.744-1.03-0.744-1.732
	c0-0.698,0.249-1.285,0.739-1.744c0.481-0.452,1.036-0.681,1.65-0.681c0.588,0,1.13,0.229,1.612,0.681
	c0.491,0.46,0.739,1.047,0.739,1.744C84.67,26.316,84.42,26.898,83.926,27.346z M95.928,45.415l-0.136-0.187
	c-0.718-0.99-1.449-1.981-2.191-2.971c-0.638-0.85-1.276-1.712-1.899-2.568c-0.174,0.164-0.352,0.331-0.531,0.503
	c-0.262,0.251-0.519,0.494-0.772,0.728v4.496h-3.995v-22.19H90.4v12.84c0.923-0.861,1.822-1.697,2.699-2.505
	c1.115-1.028,2.268-2.1,3.457-3.216l0.32-0.3l2.464,2.464L99,32.827c-0.843,0.794-1.636,1.544-2.38,2.25
	c-0.659,0.626-1.357,1.286-2.093,1.979c0.888,1.229,1.778,2.448,2.666,3.656c0.968,1.316,1.936,2.643,2.904,3.984l0.519,0.719
	H95.928z"/>
</svg>
