<?xml version="1.0" encoding="utf-8"?>
<!-- Generator: Adobe Illustrator 17.0.0, SVG Export Plug-In . SVG Version: 6.00 Build 0)  -->
<!DOCTYPE svg PUBLIC "-//W3C//DTD SVG 1.1//EN" "http://www.w3.org/Graphics/SVG/1.1/DTD/svg11.dtd">
<svg version="1.1" id="Capa_1" xmlns="http://www.w3.org/2000/svg" xmlns:xlink="http://www.w3.org/1999/xlink" x="0px" y="0px"
	 width="320px" height="197px" viewBox="-25 -23.5 320 197" enable-background="new -25 -23.5 320 197" xml:space="preserve">
<path fill="#FFFFFF" d="M163.316,46.582c-3.778,0-6.745,1.131-9.071,3.457c-2.326,2.329-3.458,5.216-3.458,8.832
	c0,3.545,1.136,6.44,3.474,8.849c2.322,2.394,5.285,3.559,9.056,3.559c3.769,0,6.729-1.165,9.055-3.559
	c2.338-2.412,3.474-5.307,3.474-8.849c0-3.613-1.132-6.503-3.458-8.832C170.057,47.712,167.09,46.582,163.316,46.582z"/>
<path fill="#FFFFFF" d="M-20.827-5.107v105.504h147.679l-0.005,56.124l62.355-56.124h102.008V-5.107H-20.827z M20.497,72.645
	c-0.483,1.76-1.346,3.488-2.563,5.14c-1.247,1.693-2.986,3.124-5.163,4.257c-2.197,1.139-5.037,1.717-8.442,1.717
	c-3.105,0-6.128-0.532-8.986-1.583c-2.917-1.071-5.282-2.588-7.031-4.512l-0.871-0.957l0.847-0.979
	c1.033-1.19,2.021-2.394,2.938-3.582c0.975-1.258,1.997-2.509,3.038-3.709l0.825-0.951l1.061,0.677
	c1.672,1.065,3.089,1.854,4.219,2.341c1.001,0.439,2.372,0.658,4.078,0.658c0.08-0.004,0.345-0.02,0.782-0.055
	c0.357-0.026,0.781-0.148,1.263-0.358c0.457-0.2,0.865-0.499,1.253-0.914c0.277-0.299,0.453-0.86,0.508-1.62
	c0.07-1.264-0.363-1.797-0.696-2.084c-0.735-0.635-1.734-1.19-2.961-1.648c-1.373-0.507-2.895-1.022-4.52-1.527
	c-1.784-0.552-3.487-1.327-5.061-2.306c-1.673-1.039-3.067-2.52-4.14-4.399c-1.079-1.889-1.627-4.385-1.627-7.42
	c0-2.713,0.549-5.048,1.627-6.939c1.051-1.839,2.388-3.374,3.975-4.564c1.572-1.179,3.3-2.042,5.136-2.568
	c1.793-0.513,3.457-0.775,4.94-0.775c0.858,0,1.912,0.086,3.127,0.253c1.247,0.174,2.522,0.476,3.789,0.9
	c1.277,0.427,2.545,0.985,3.77,1.66c1.291,0.714,2.442,1.617,3.419,2.682l0.783,0.854l-0.657,0.957
	c-0.891,1.296-1.836,2.572-2.81,3.79c-0.928,1.161-1.834,2.38-2.688,3.621l-0.991,1.438l-1.236-1.23
	c-0.186-0.182-0.7-0.618-2.073-1.466c-0.919-0.569-2.206-0.86-3.834-0.86c-1.34,0-2.313,0.253-2.816,0.734
	c-0.311,0.294-0.647,0.763-0.515,1.808c0.045,0.27,0.217,0.758,1.072,1.253c0.97,0.56,2.132,1.114,3.458,1.643
	c1.434,0.575,2.96,1.225,4.539,1.936c1.697,0.763,3.289,1.731,4.733,2.876c1.504,1.198,2.757,2.717,3.725,4.518
	c0.988,1.839,1.489,4.142,1.489,6.845C21.208,69.451,20.976,70.907,20.497,72.645z M39.017,82.802H26.18V35.059h12.839v47.743
	H39.017z M37.942,24.746c-1.546,1.401-3.282,2.112-5.162,2.112c-1.964,0-3.741-0.712-5.285-2.112
	c-1.586-1.435-2.391-3.308-2.391-5.563c0-2.243,0.798-4.127,2.373-5.605c1.546-1.452,3.33-2.186,5.301-2.186
	c1.887,0,3.632,0.734,5.179,2.186c1.577,1.48,2.375,3.364,2.375,5.605C40.334,21.435,39.529,23.308,37.942,24.746z M117.868,82.802
	v-29.43c-0.134-1.731-0.776-3.269-1.959-4.584c-1.12-1.247-3.014-1.95-5.626-2.087c-1.808,0-3.624,0.331-5.317,0.979
	c-1.696,0.65-3.214,1.564-4.517,2.717c-1.288,1.145-2.341,2.529-3.13,4.106c-0.771,1.543-1.161,3.255-1.161,5.085v23.215H83.32
	v-29.43c-0.133-1.731-0.776-3.265-1.958-4.584c-1.12-1.247-3.014-1.95-5.626-2.087c-1.808,0-3.624,0.331-5.32,0.979
	c-1.695,0.65-3.213,1.564-4.516,2.717c-1.29,1.147-2.342,2.531-3.127,4.106c-0.772,1.537-1.161,3.249-1.161,5.085v23.215H48.773
	V35.059h11.643v2.534c0.155,1.793,0.295,3.531,0.414,5.088c0.013,0.162,0.026,0.325,0.038,0.489
	c1.553-2.149,3.468-3.966,5.726-5.426c3.59-2.324,7.841-3.59,12.633-3.758c0,0,0.002,0,0.006,0c4.758,0,8.626,1.216,11.551,3.619
	c1.987,1.631,3.437,3.63,4.33,5.965c1.687-2.431,3.813-4.447,6.347-6.019c3.547-2.198,7.691-3.396,12.311-3.565
	c0.002,0,0.005,0,0.005,0c5.104,0,9.173,1.376,12.148,4.086c2.994,2.73,4.602,6.33,4.778,10.7l0.001,34.03h-12.837V82.802z
	 M186.831,68.535c-1.305,3.026-3.119,5.712-5.39,7.984c-2.276,2.278-5.009,4.091-8.119,5.395c-3.113,1.304-6.48,1.965-10.006,1.965
	c-2.517,0-4.809-0.302-6.813-0.897c-1.952-0.581-3.632-1.241-4.991-1.965c-0.252-0.134-0.494-0.265-0.726-0.399v25.887h-11.03
	V35.058h9.357v1.458c0,0.801,0.045,1.595,0.134,2.363c0.725-0.547,1.581-1.096,2.595-1.662c1.428-0.797,3.115-1.535,5.016-2.196
	c1.978-0.689,4.15-1.039,6.456-1.039c3.526,0,6.892,0.664,10.007,1.967c3.112,1.304,5.844,3.118,8.118,5.393
	c2.268,2.269,4.079,4.935,5.385,7.918c1.311,3.004,1.974,6.238,1.974,9.609C188.799,62.241,188.137,65.493,186.831,68.535z
	 M208.284,82.802h-12.837V11.504h12.837V82.802z M227.288,82.802h-12.837V35.059h12.837V82.802z M226.213,24.749
	c-1.546,1.398-3.282,2.11-5.162,2.11c-1.962,0-3.74-0.712-5.284-2.112c-1.586-1.435-2.391-3.308-2.391-5.563
	c0-2.243,0.798-4.127,2.373-5.605c1.546-1.452,3.33-2.186,5.3-2.186c1.887,0,3.632,0.734,5.179,2.186
	c1.577,1.478,2.375,3.364,2.375,5.605C228.605,21.437,227.8,23.308,226.213,24.749z M264.776,82.802l-0.437-0.601
	c-2.307-3.18-4.654-6.363-7.039-9.547c-2.052-2.731-4.1-5.501-6.102-8.251c-0.56,0.527-1.13,1.065-1.705,1.617
	c-0.841,0.806-1.668,1.586-2.48,2.338v14.444h-12.837V11.504h12.837V52.76c2.964-2.768,5.854-5.453,8.672-8.049
	c3.583-3.303,7.286-6.748,11.109-10.333l1.029-0.965l7.918,7.916l-1.094,1.031c-2.71,2.551-5.257,4.96-7.647,7.229
	c-2.117,2.01-4.359,4.132-6.724,6.358c2.855,3.95,5.712,7.865,8.568,11.745c3.111,4.228,6.221,8.493,9.331,12.801l1.668,2.309
	C279.844,82.802,264.776,82.802,264.776,82.802z"/>
</svg>
