<?xml version="1.0" encoding="utf-8"?>
<!-- Generator: Adobe Illustrator 17.0.0, SVG Export Plug-In . SVG Version: 6.00 Build 0)  -->
<!DOCTYPE svg PUBLIC "-//W3C//DTD SVG 1.1//EN" "http://www.w3.org/Graphics/SVG/1.1/DTD/svg11.dtd">
<svg version="1.1" id="Capa_1" xmlns="http://www.w3.org/2000/svg" xmlns:xlink="http://www.w3.org/1999/xlink" x="0px" y="0px"
	 width="380px" height="250px" viewBox="-30 -26.5 380 250" enable-background="new -30 -26.5 380 250" xml:space="preserve">
<path fill="#FFFFFF" d="M193.749,73.36c-4.534,0-8.094,1.357-10.885,4.148c-2.791,2.795-4.15,6.259-4.15,10.598
	c0,4.254,1.363,7.728,4.169,10.619c2.786,2.873,6.342,4.271,10.867,4.271c4.523,0,8.075-1.398,10.866-4.271
	c2.806-2.894,4.169-6.368,4.169-10.619c0-4.336-1.358-7.804-4.15-10.598C201.839,74.716,198.278,73.36,193.749,73.36z"/>
<path fill="#FFFFFF" d="M-27.222,11.333v126.605h177.215l-0.006,67.349l74.826-67.349h122.41V11.333H-27.222z M22.367,104.636
	c-0.58,2.112-1.615,4.186-3.076,6.168c-1.496,2.032-3.583,3.749-6.196,5.108c-2.636,1.367-6.044,2.06-10.13,2.06
	c-3.726,0-7.354-0.638-10.783-1.9c-3.5-1.285-6.338-3.106-8.437-5.414l-1.045-1.148l1.016-1.175c1.24-1.428,2.425-2.873,3.526-4.298
	c1.17-1.51,2.396-3.011,3.646-4.451l0.99-1.141l1.273,0.812c2.006,1.278,3.707,2.225,5.063,2.809c1.201,0.527,2.846,0.79,4.894,0.79
	c0.096-0.005,0.414-0.024,0.938-0.066c0.428-0.031,0.937-0.178,1.516-0.43c0.548-0.24,1.038-0.599,1.504-1.097
	c0.332-0.359,0.544-1.032,0.61-1.944c0.084-1.517-0.436-2.156-0.835-2.501c-0.882-0.762-2.081-1.428-3.553-1.978
	c-1.648-0.608-3.474-1.226-5.424-1.832c-2.141-0.662-4.184-1.592-6.073-2.767c-2.008-1.247-3.68-3.024-4.968-5.279
	c-1.295-2.267-1.952-5.262-1.952-8.904c0-3.256,0.659-6.058,1.952-8.327c1.261-2.207,2.866-4.049,4.77-5.477
	c1.886-1.415,3.96-2.45,6.163-3.082c2.152-0.616,4.148-0.93,5.928-0.93c1.03,0,2.294,0.103,3.752,0.304
	c1.496,0.209,3.026,0.571,4.547,1.08c1.532,0.512,3.054,1.182,4.524,1.992c1.549,0.857,2.93,1.94,4.103,3.218l0.94,1.025
	l-0.788,1.148c-1.069,1.555-2.203,3.086-3.372,4.548c-1.114,1.393-2.201,2.856-3.226,4.345l-1.189,1.726l-1.483-1.476
	c-0.223-0.218-0.84-0.742-2.488-1.759c-1.103-0.683-2.647-1.032-4.601-1.032c-1.608,0-2.776,0.304-3.379,0.881
	c-0.373,0.353-0.776,0.916-0.618,2.17c0.054,0.324,0.26,0.91,1.286,1.504c1.164,0.672,2.558,1.337,4.15,1.972
	c1.721,0.69,3.552,1.47,5.447,2.323c2.036,0.916,3.947,2.077,5.68,3.451c1.805,1.438,3.308,3.26,4.47,5.422
	c1.186,2.207,1.787,4.97,1.787,8.214C23.22,100.803,22.941,102.55,22.367,104.636z M44.591,116.824H29.186V59.532h15.407v57.292
	H44.591z M43.301,47.157c-1.855,1.681-3.938,2.534-6.194,2.534c-2.357,0-4.489-0.854-6.342-2.534
	c-1.903-1.722-2.869-3.97-2.869-6.676c0-2.692,0.958-4.952,2.848-6.726c1.855-1.742,3.996-2.623,6.361-2.623
	c2.264,0,4.358,0.881,6.215,2.623c1.892,1.776,2.85,4.037,2.85,6.726C46.171,43.184,45.205,45.431,43.301,47.157z M139.212,116.824
	V81.508c-0.161-2.077-0.931-3.923-2.351-5.501c-1.344-1.496-3.617-2.34-6.751-2.504c-2.17,0-4.349,0.397-6.38,1.175
	c-2.035,0.78-3.857,1.877-5.42,3.26c-1.546,1.374-2.809,3.035-3.756,4.927c-0.925,1.852-1.393,3.906-1.393,6.102v27.858H97.754
	V81.509c-0.16-2.077-0.931-3.918-2.35-5.501c-1.344-1.496-3.617-2.34-6.751-2.504c-2.17,0-4.349,0.397-6.384,1.175
	c-2.034,0.78-3.856,1.877-5.419,3.26c-1.548,1.376-2.81,3.037-3.752,4.927c-0.926,1.844-1.393,3.899-1.393,6.102v27.858H56.298
	V59.532h13.972v3.041c0.186,2.152,0.354,4.237,0.497,6.106c0.016,0.194,0.031,0.39,0.046,0.587c1.864-2.579,4.162-4.759,6.871-6.511
	c4.308-2.789,9.409-4.308,15.16-4.51c0,0,0.002,0,0.007,0c5.71,0,10.351,1.459,13.861,4.343c2.384,1.957,4.124,4.356,5.196,7.158
	c2.024-2.917,4.576-5.336,7.616-7.223c4.256-2.638,9.229-4.075,14.773-4.278c0.002,0,0.006,0,0.006,0
	c6.125,0,11.008,1.651,14.578,4.903c3.593,3.276,5.522,7.596,5.734,12.84l0.001,40.836h-15.404l0,0H139.212z M221.967,99.704
	c-1.566,3.631-3.743,6.854-6.468,9.581c-2.731,2.734-6.011,4.909-9.743,6.474c-3.736,1.565-7.776,2.358-12.007,2.358
	c-3.02,0-5.771-0.362-8.176-1.076c-2.342-0.697-4.358-1.489-5.989-2.358c-0.302-0.161-0.593-0.318-0.871-0.479v31.064h-13.236
	V59.531h11.228v1.75c0,0.961,0.054,1.914,0.161,2.836c0.87-0.656,1.897-1.315,3.114-1.994c1.714-0.956,3.738-1.842,6.019-2.635
	c2.374-0.827,4.98-1.247,7.747-1.247c4.231,0,8.27,0.797,12.008,2.36c3.734,1.565,7.013,3.742,9.742,6.472
	c2.722,2.723,4.895,5.922,6.462,9.502c1.573,3.605,2.369,7.486,2.369,11.531C224.329,92.151,223.535,96.053,221.967,99.704z
	 M247.711,116.824h-15.404V31.266h15.404V116.824z M270.516,116.824h-15.404V59.532h15.404V116.824z M269.226,47.16
	c-1.855,1.678-3.938,2.532-6.194,2.532c-2.354,0-4.488-0.854-6.341-2.534c-1.903-1.722-2.869-3.97-2.869-6.676
	c0-2.692,0.958-4.952,2.848-6.726c1.855-1.742,3.996-2.623,6.36-2.623c2.264,0,4.358,0.881,6.215,2.623
	c1.892,1.774,2.85,4.037,2.85,6.726C272.096,43.186,271.13,45.431,269.226,47.16z M315.501,116.824l-0.524-0.721
	c-2.768-3.816-5.585-7.636-8.447-11.456c-2.462-3.277-4.92-6.601-7.322-9.901c-0.672,0.632-1.356,1.278-2.046,1.94
	c-1.009,0.967-2.002,1.903-2.976,2.806v17.333h-15.404V31.266h15.404v49.507c3.557-3.322,7.025-6.544,10.406-9.659
	c4.3-3.964,8.743-8.098,13.331-12.4l1.235-1.158l9.502,9.499l-1.313,1.237c-3.252,3.061-6.308,5.952-9.176,8.675
	c-2.54,2.412-5.231,4.958-8.069,7.63c3.426,4.74,6.854,9.438,10.282,14.094c3.733,5.074,7.465,10.192,11.197,15.361l2.002,2.771
	C333.583,116.824,315.501,116.824,315.501,116.824z"/>
</svg>
